HIERARCHY
ROOT Hips
{
	OFFSET 0.000000 0.000000 0.000000
	CHANNELS 6 Xposition Yposition Zposition Zrotation Yrotation Xrotation 
	JOINT LowerBack
	{
		OFFSET 0.000000 0.000000 0.000000
		CHANNELS 3 Zrotation Yrotation Xrotation
		JOINT Spine
		{
			OFFSET 0.028270 2.035590 -0.193380
			CHANNELS 3 Zrotation Yrotation Xrotation
			JOINT Spine1
			{
				OFFSET 0.056720 2.048850 -0.042750
				CHANNELS 3 Zrotation Yrotation Xrotation
				JOINT Neck
				{
					OFFSET 0.000000 0.000000 0.000000
					CHANNELS 3 Zrotation Yrotation Xrotation
					JOINT Neck1
					{
						OFFSET -0.054170 1.746240 0.172020
						CHANNELS 3 Zrotation Yrotation Xrotation
						JOINT Head
						{
							OFFSET 0.104070 1.761360 -0.123970
							CHANNELS 3 Zrotation Yrotation Xrotation
							End Site
							{
								OFFSET 0.000000 0.000000 0.000000
							}
						}
					}
				}
				JOINT LeftShoulder
				{
					OFFSET 0.000000 0.000000 0.000000
					CHANNELS 3 Zrotation Yrotation Xrotation
					JOINT LeftArm
					{
						OFFSET 3.362410 1.200890 -0.311210
						CHANNELS 3 Zrotation Yrotation Xrotation
						JOINT LeftForeArm
						{
							OFFSET 4.983000 -0.000000 -0.000000
							CHANNELS 3 Zrotation Yrotation Xrotation
							JOINT LeftHand
							{
								OFFSET 3.483560 -0.000000 -0.000000
								CHANNELS 3 Zrotation Yrotation Xrotation
								JOINT LeftFingerBase
								{
									OFFSET 0.000000 0.000000 0.000000
									CHANNELS 3 Zrotation Yrotation Xrotation
									JOINT LeftHandIndex1
									{
										OFFSET 0.715260 -0.000000 -0.000000
										CHANNELS 3 Zrotation Yrotation Xrotation
										End Site
										{
											OFFSET 0.000000 0.000000 0.000000
										}
									}
								}
								JOINT LThumb
								{
									OFFSET 0.000000 0.000000 0.000000
									CHANNELS 3 Zrotation Yrotation Xrotation
									End Site
									{
										OFFSET 0.000000 0.000000 0.000000
									}
								}
							}
						}
					}
				}
				JOINT RightShoulder
				{
					OFFSET 0.000000 0.000000 0.000000
					CHANNELS 3 Zrotation Yrotation Xrotation
					JOINT RightArm
					{
						OFFSET -3.136600 1.374050 -0.404650
						CHANNELS 3 Zrotation Yrotation Xrotation
						JOINT RightForeArm
						{
							OFFSET -5.241900 -0.000000 -0.000000
							CHANNELS 3 Zrotation Yrotation Xrotation
							JOINT RightHand
							{
								OFFSET -3.444170 -0.000000 -0.000000
								CHANNELS 3 Zrotation Yrotation Xrotation
								JOINT RightFingerBase
								{
									OFFSET 0.000000 0.000000 0.000000
									CHANNELS 3 Zrotation Yrotation Xrotation
									JOINT RightHandIndex1
									{
										OFFSET -0.622530 -0.000000 -0.000000
										CHANNELS 3 Zrotation Yrotation Xrotation
										End Site
										{
											OFFSET 0.000000 0.000000 0.000000
										}
									}
								}
								JOINT RThumb
								{
									OFFSET 0.000000 0.000000 0.000000
									CHANNELS 3 Zrotation Yrotation Xrotation
									End Site
									{
										OFFSET 0.000000 0.000000 0.000000
									}
								}
							}
						}
					}
				}
			}
		}
	}
}
}
MOTION
Frames: 9
Frame Time: 0.008333
11.485431 16.730755 1.819962 4.864828 -86.017594 21.159930 1.775164 -0.852627 0.259289 0.031915 -0.958207 -2.951365 -4.027151 -0.849449 -1.255479 2.556824 -3.958426 1.710188 -2.188180 -0.279316 2.423200 0.000000 0.000000 0.000000 14.624725 5.489619 -1.144806 -60.510137 -31.977526 0.911405 -178.982459 -58.776762 179.994255 1.196961 8.121977 0.079313 0.019611 0.479806 0.000000 0.000000 0.000000 0.000000 0.000000 0.000000 0.000000 -5.971725 -2.082903 -3.017981 55.583424 39.172670 -5.732628 -179.093840 64.393767 179.869592 -9.604494 8.739575 -0.815080 0.071418 -0.862728 -0.000000 0.000000 0.000000 0.000000 0.000000 0.000000 0.000000 
11.343912 16.406047 1.792240 3.758476 -85.895827 22.149691 1.687261 -0.878460 0.448337 0.003921 -0.975637 -2.969923 -4.086476 -0.866132 -1.466062 2.761788 -3.722550 1.698985 -2.209547 -0.280217 2.418514 0.000000 0.000000 0.000000 14.639957 5.080780 -1.098259 -61.350484 -31.399089 1.456811 -179.026884 -59.341036 179.990802 1.483819 8.139771 0.099273 0.011437 0.481392 0.000000 0.000000 0.000000 0.000000 0.000000 0.000000 0.000000 -5.674496 -1.664854 -2.928026 56.708480 38.419581 -4.861354 -179.122652 64.856750 179.869598 -9.616640 8.861120 -0.826338 0.070535 -0.862488 -0.000000 0.000000 0.000000 0.000000 0.000000 0.000000 0.000000 
11.205882 16.079412 1.763051 2.884012 -85.744401 22.940580 1.602170 -0.915244 0.653537 -0.024701 -1.004315 -2.981404 -4.154490 -0.893953 -1.667110 2.959434 -3.518824 1.658319 -2.227883 -0.280505 2.404974 0.000000 0.000000 0.000000 14.615385 4.720358 -1.043268 -62.117066 -30.884714 1.989775 -179.067656 -59.993669 179.987464 1.752759 8.070545 0.116735 0.003861 0.486155 0.000000 0.000000 0.000000 0.000000 0.000000 0.000000 0.000000 -5.377543 -1.282009 -2.845607 57.933492 37.658763 -3.954305 -179.148343 65.425702 179.869576 -9.621341 9.022419 -0.840298 0.068452 -0.862278 -0.000000 0.000000 0.000000 0.000000 0.000000 0.000000 0.000000 
11.071497 15.755764 1.732863 2.234293 -85.574634 23.559120 1.524914 -0.959152 0.868161 -0.053995 -1.040833 -2.985018 -4.234688 -0.929251 -1.850011 3.152035 -3.360831 1.581521 -2.246949 -0.280280 2.380431 0.000000 0.000000 0.000000 14.522524 4.417351 -0.976794 -62.809981 -30.438139 2.521560 -179.098503 -60.753329 179.984363 1.990101 7.922858 0.130301 -0.003180 0.493453 0.000000 0.000000 0.000000 0.000000 0.000000 0.000000 0.000000 -5.058679 -0.949008 -2.768251 59.264987 36.897718 -2.995455 -179.175196 66.120916 179.869766 -9.603102 9.223896 -0.855561 0.064981 -0.861771 -0.000000 0.000000 0.000000 0.000000 0.000000 0.000000 0.000000 
10.940782 15.440265 1.702131 1.770072 -85.399487 24.062693 1.460694 -1.005620 1.085717 -0.083839 -1.081003 -2.980717 -4.329732 -0.967674 -2.008403 3.343279 -3.259733 1.463548 -2.271018 -0.279695 2.343224 0.000000 0.000000 0.000000 14.337822 4.173527 -0.896445 -63.434942 -30.051112 3.060626 -179.115546 -61.633498 179.981574 2.189230 7.714206 0.139472 -0.009897 0.502284 0.000000 0.000000 0.000000 0.000000 0.000000 0.000000 0.000000 -4.691717 -0.677640 -2.691874 60.702045 36.139495 -1.974134 -179.207497 66.966342 179.870345 -9.553278 9.466128 -0.871122 0.060188 -0.860587 -0.000000 0.000000 0.000000 0.000000 0.000000 0.000000 0.000000 
10.813548 15.137783 1.671305 1.456679 -85.230119 24.500621 1.412963 -1.051097 1.301910 -0.114131 -1.121433 -2.969109 -4.441239 -1.005824 -2.139660 3.537699 -3.219347 1.302430 -2.303697 -0.278914 2.292587 0.000000 0.000000 0.000000 14.041957 3.981604 -0.799341 -63.996698 -29.701119 3.608551 -179.117818 -62.649958 179.979111 2.350516 7.470962 0.144946 -0.016619 0.511323 0.000000 0.000000 0.000000 0.000000 0.000000 0.000000 0.000000 -4.251722 -0.471733 -2.611675 62.236679 35.378132 -0.890280 -179.248430 67.986985 179.871423 -9.471012 9.745140 -0.886384 0.054348 -0.858204 -0.000000 0.000000 0.000000 0.000000 0.000000 0.000000 0.000000 
10.689772 14.852700 1.640756 1.266993 -85.075094 24.904173 1.383659 -1.093340 1.515593 -0.144645 -1.159863 -2.951278 -4.569261 -1.041595 -2.245351 3.739722 -3.235868 1.099553 -2.347910 -0.278125 2.228770 0.000000 0.000000 0.000000 13.623884 3.826195 -0.683527 -64.501380 -29.356895 4.158630 -179.107638 -63.810555 179.976961 2.479969 7.226127 0.147723 -0.023645 0.519070 0.000000 0.000000 0.000000 0.000000 0.000000 0.000000 0.000000 -3.716928 -0.327669 -2.522357 63.851593 34.600834 0.242383 -179.299478 69.208556 179.873020 -9.363488 10.053631 -0.901047 0.047891 -0.854029 -0.000000 0.000000 0.000000 0.000000 0.000000 0.000000 0.000000 
10.569164 14.588530 1.610795 1.187240 -84.939534 25.288156 1.373077 -1.131569 1.726921 -0.175056 -1.195336 -2.928777 -4.712283 -1.074377 -2.329779 3.953418 -3.297467 0.858837 -2.405405 -0.277490 2.152794 0.000000 0.000000 0.000000 13.079239 3.687254 -0.547199 -64.951988 -28.981152 4.697105 -179.089912 -65.123981 179.975071 2.587548 7.015104 0.149598 -0.031230 0.524026 0.000000 0.000000 0.000000 0.000000 0.000000 0.000000 0.000000 -3.069910 -0.234260 -2.418591 65.518301 33.791642 1.396043 -179.360509 70.656743 179.875091 -9.244770 10.379682 -0.915210 0.041368 -0.847387 -0.000000 0.000000 0.000000 0.000000 0.000000 0.000000 0.000000 
10.451321 14.347800 1.581675 1.208993 -84.825532 25.657343 1.379673 -1.166224 1.935359 -0.204974 -1.228021 -2.903537 -4.867055 -1.104853 -2.398208 4.182390 -3.390405 0.585148 -2.476925 -0.277148 2.066065 0.000000 0.000000 0.000000 12.413770 3.543113 -0.390542 -65.353870 -28.535493 5.204702 -179.072134 -66.599813 179.973374 2.685118 6.868381 0.152168 -0.039423 0.524981 0.000000 0.000000 0.000000 0.000000 0.000000 0.000000 0.000000 -2.297243 -0.179871 -2.295578 67.198941 32.940619 2.532785 -179.430054 72.359869 179.877508 -9.135437 10.712208 -0.929977 0.035402 -0.837678 -0.000000 0.000000 0.000000 0.000000 0.000000 0.000000 0.000000 
